<?xml version="1.0" encoding="UTF-8" standalone="no"?>
<!-- Uploaded to: SVG Repo, www.svgrepo.com, Transformed by: SVG Repo Mixer Tools -->

<svg
   width="48"
   height="48"
   viewBox="0 0 9.6 9.6"
   fill="none"
   version="1.1"
   id="svg2"
   sodipodi:docname="mic-muted.svg"
   xml:space="preserve"
   inkscape:version="1.3.2 (091e20ef0f, 2023-11-25, custom)"
   xmlns:inkscape="http://www.inkscape.org/namespaces/inkscape"
   xmlns:sodipodi="http://sodipodi.sourceforge.net/DTD/sodipodi-0.dtd"
   xmlns="http://www.w3.org/2000/svg"
   xmlns:svg="http://www.w3.org/2000/svg"
   xmlns:sketch="http://www.bohemiancoding.com/sketch/ns"><defs
     id="defs2" /><sodipodi:namedview
     id="namedview2"
     pagecolor="#ffffff"
     bordercolor="#000000"
     borderopacity="0.25"
     inkscape:showpageshadow="2"
     inkscape:pageopacity="0.0"
     inkscape:pagecheckerboard="0"
     inkscape:deskcolor="#d1d1d1"
     showguides="true"
     inkscape:zoom="12.55"
     inkscape:cx="17.968127"
     inkscape:cy="26.414343"
     inkscape:window-width="1586"
     inkscape:window-height="944"
     inkscape:window-x="0"
     inkscape:window-y="0"
     inkscape:window-maximized="1"
     inkscape:current-layer="g1" /><g
     id="SVGRepo_bgCarrier"
     stroke-width="0" /><g
     id="SVGRepo_tracerCarrier"
     stroke-linecap="round"
     stroke-linejoin="round" /><g
     id="SVGRepo_iconCarrier" /><g
     style="fill:none"
     id="g1"
     transform="translate(-8.4729176,-6.3769516)"><g
       id="SVGRepo_bgCarrier-5"
       stroke-width="0" /><g
       id="SVGRepo_tracerCarrier-3"
       stroke-linecap="round"
       stroke-linejoin="round" /><g
       style="fill:#c6d0f5;fill-opacity:1;stroke:#c6d0f5;stroke-width:0.57149;stroke-linecap:round;stroke-linejoin:round;stroke-dasharray:none;stroke-opacity:1;paint-order:stroke fill markers"
       id="g2"
       transform="matrix(0.34992467,0,0,0.35,9.0749225,6.9769516)"><g
         id="SVGRepo_bgCarrier-1"
         stroke-width="0"
         style="fill:#c6d0f5;fill-opacity:1;stroke:#c6d0f5;stroke-width:0.571491;stroke-linecap:round;stroke-linejoin:round;stroke-dasharray:none;stroke-opacity:1;paint-order:stroke fill markers" /><g
         id="SVGRepo_tracerCarrier-2"
         stroke-linecap="round"
         stroke-linejoin="round"
         style="fill:#c6d0f5;fill-opacity:1;stroke:#c6d0f5;stroke-width:0.571491;stroke-linecap:round;stroke-linejoin:round;stroke-dasharray:none;stroke-opacity:1;paint-order:stroke fill markers" /><g
         id="SVGRepo_iconCarrier-7"
         style="fill:#c6d0f5;fill-opacity:1;stroke:#c6d0f5;stroke-width:0.571491;stroke-linecap:round;stroke-linejoin:round;stroke-dasharray:none;stroke-opacity:1;paint-order:stroke fill markers"><path
           d="m 11.999996,18.250005 c -1.211875,0 -2.352501,-0.39875 -3.302501,-1.05125 l -0.87875,0.89 c 1.02125,0.756875 2.23875,1.264375 3.556251,1.383125 v 1.278125 h -0.625 c -0.345,0 -0.625,0.28 -0.625,0.625 0,0.345625 0.28,0.625 0.625,0.625 h 2.5 c 0.345,0 0.625,-0.279375 0.625,-0.625 0,-0.345 -0.28,-0.625 -0.625,-0.625 h -0.625 V 19.47188 c 3.08625,-0.278125 5.698125,-2.5975 6.249999,-5.596875 h -1.25 c -0.569375,2.504375 -2.948749,4.375 -5.624999,4.375 z m 0,-2.5 c -0.54,0 -1.04125,-0.149375 -1.484375,-0.390625 l -0.910626,0.921875 c 0.688751,0.45125 1.509376,0.71875 2.395001,0.71875 2.41625,0 4.374999,-1.95875 4.374999,-4.375 V 9.4293799 l -1.25,1.2650001 v 1.930625 c 0,1.72625 -1.399374,3.125 -3.124999,3.125 z M 8.874995,6.3750049 c 0,-1.72625 1.399376,-3.125 3.125001,-3.125 1.35875,0 2.503125,0.8725 2.93375,2.08375 l 0.94,-0.95125 c -0.726875,-1.40875 -2.179375,-2.3824999 -3.87375,-2.3824999 -2.416251,0 -4.375001,1.9587499 -4.375001,4.3749999 v 6.2500001 c 0,0.03313 1.25,-1.159375 1.25,-1.159375 z M 18.61062,3.8831299 3.868745,17.99813 l 0.8925,0.88 14.7475,-14.1075001 z M 6.40437,13.96563 C 6.39687,13.93438 6.38187,13.90625 6.375,13.875 h -1.25 c 0.06812,0.3725 0.169375,0.734375 0.29875,1.083125 z"
           id="microphone-off"
           sketch:type="MSShapeGroup"
           style="fill:#c6d0f5;fill-opacity:1;fill-rule:evenodd;stroke:#c6d0f5;stroke-width:0.571491;stroke-linecap:round;stroke-linejoin:round;stroke-dasharray:none;stroke-opacity:1;paint-order:stroke fill markers" /></g></g></g></svg>
