<?xml version="1.0" encoding="UTF-8" standalone="no"?>
<!-- Uploaded to: SVG Repo, www.svgrepo.com, Transformed by: SVG Repo Mixer Tools -->

<svg
   width="48"
   height="48"
   viewBox="0 0 9.6 9.6"
   fill="none"
   version="1.1"
   id="svg2"
   sodipodi:docname="mic-unmuted.svg"
   xml:space="preserve"
   inkscape:version="1.3.2 (091e20ef0f, 2023-11-25, custom)"
   xmlns:inkscape="http://www.inkscape.org/namespaces/inkscape"
   xmlns:sodipodi="http://sodipodi.sourceforge.net/DTD/sodipodi-0.dtd"
   xmlns="http://www.w3.org/2000/svg"
   xmlns:svg="http://www.w3.org/2000/svg"
   xmlns:sketch="http://www.bohemiancoding.com/sketch/ns"><defs
     id="defs2" /><sodipodi:namedview
     id="namedview2"
     pagecolor="#ffffff"
     bordercolor="#000000"
     borderopacity="0.25"
     inkscape:showpageshadow="2"
     inkscape:pageopacity="0.0"
     inkscape:pagecheckerboard="0"
     inkscape:deskcolor="#d1d1d1"
     showguides="true"
     inkscape:zoom="8.8741901"
     inkscape:cx="24.058534"
     inkscape:cy="30.368969"
     inkscape:window-width="1586"
     inkscape:window-height="944"
     inkscape:window-x="0"
     inkscape:window-y="0"
     inkscape:window-maximized="1"
     inkscape:current-layer="g1" /><g
     id="SVGRepo_bgCarrier"
     stroke-width="0" /><g
     id="SVGRepo_tracerCarrier"
     stroke-linecap="round"
     stroke-linejoin="round" /><g
     id="SVGRepo_iconCarrier" /><g
     style="fill:none"
     id="g1"
     transform="translate(-8.4729176,-6.3769516)"><g
       id="SVGRepo_bgCarrier-5"
       stroke-width="0" /><g
       id="SVGRepo_tracerCarrier-3"
       stroke-linecap="round"
       stroke-linejoin="round" /><g
       id="SVGRepo_iconCarrier-5"
       transform="matrix(0.3498804,0,0,0.35,9.0751771,6.9769516)"
       style="fill:#c6d0f5;stroke:#c6d0f5;stroke-width:0.571526;stroke-linecap:round;stroke-linejoin:round;stroke-dasharray:none;stroke-opacity:1;paint-order:stroke fill markers;fill-opacity:1"><path
         d="M 8.8750001,6.375 C 8.8750001,4.64875 10.274375,3.25 12,3.25 c 1.725625,0 3.125,1.39875 3.125,3.125 v 6.25 c 0,1.72625 -1.399375,3.125 -3.125,3.125 -1.725625,0 -3.125,-1.39875 -3.125,-3.125 z M 12,17 c 2.41625,0 4.375,-1.95875 4.375,-4.375 V 6.375 C 16.375,3.95875 14.41625,2 12,2 9.5837501,2 7.625,3.95875 7.625,6.375 v 6.25 C 7.625,15.04125 9.5837501,17 12,17 Z m 6.875,-3.125 h -1.25 C 17.055625,16.379375 14.67625,18.25 12,18.25 9.3237501,18.25 6.944375,16.379375 6.375,13.875 h -1.25 c 0.551875,2.999375 3.164375,5.31875 6.25,5.596875 V 20.75 H 10.75 c -0.345,0 -0.625,0.28 -0.625,0.625 0,0.345625 0.28,0.625 0.625,0.625 h 2.5 c 0.345,0 0.625,-0.279375 0.625,-0.625 0,-0.345 -0.28,-0.625 -0.625,-0.625 h -0.625 v -1.278125 c 3.085625,-0.278125 5.698125,-2.5975 6.25,-5.596875 z"
         id="microphone"
         sketch:type="MSShapeGroup"
         style="fill:#c6d0f5;fill-opacity:1;fill-rule:evenodd;stroke:#c6d0f5;stroke-width:0.571527;stroke-linecap:round;stroke-linejoin:round;stroke-dasharray:none;stroke-opacity:1;paint-order:stroke fill markers" /></g></g></svg>
