<?xml version="1.0" encoding="UTF-8" standalone="no"?>
<!-- Uploaded to: SVG Repo, www.svgrepo.com, Transformed by: SVG Repo Mixer Tools -->

<svg
   width="48"
   height="48"
   viewBox="0 0 9.6 9.6"
   fill="none"
   version="1.1"
   id="svg2"
   sodipodi:docname="vol-3.svg"
   xml:space="preserve"
   inkscape:version="1.3.2 (091e20ef0f, 2023-11-25, custom)"
   xmlns:inkscape="http://www.inkscape.org/namespaces/inkscape"
   xmlns:sodipodi="http://sodipodi.sourceforge.net/DTD/sodipodi-0.dtd"
   xmlns="http://www.w3.org/2000/svg"
   xmlns:svg="http://www.w3.org/2000/svg"><defs
     id="defs2" /><sodipodi:namedview
     id="namedview2"
     pagecolor="#ffffff"
     bordercolor="#000000"
     borderopacity="0.25"
     inkscape:showpageshadow="2"
     inkscape:pageopacity="0.0"
     inkscape:pagecheckerboard="0"
     inkscape:deskcolor="#d1d1d1"
     showguides="true"
     inkscape:zoom="8.8741901"
     inkscape:cx="12.902586"
     inkscape:cy="29.129419"
     inkscape:window-width="1586"
     inkscape:window-height="944"
     inkscape:window-x="0"
     inkscape:window-y="0"
     inkscape:window-maximized="1"
     inkscape:current-layer="g2" /><g
     id="SVGRepo_bgCarrier"
     stroke-width="0" /><g
     id="SVGRepo_tracerCarrier"
     stroke-linecap="round"
     stroke-linejoin="round" /><g
     id="SVGRepo_iconCarrier" /><g
     style="fill:none"
     id="g1"
     transform="translate(-8.4729176,-6.3769516)"><g
       id="SVGRepo_bgCarrier-5"
       stroke-width="0" /><g
       id="SVGRepo_tracerCarrier-3"
       stroke-linecap="round"
       stroke-linejoin="round" /><g
       style="fill:none;stroke:#c6d0f5;stroke-width:1.64496;stroke-dasharray:none;stroke-opacity:1;stroke-linejoin:round;stroke-linecap:round"
       id="g2"
       transform="matrix(0.36645329,0,0,0.36305633,8.8759992,6.8202478)"><g
         style="fill:none;stroke-width:1.64496;stroke-linecap:round;stroke-linejoin:round;stroke-dasharray:none;stroke:#c6d0f5;stroke-opacity:1"
         id="g3"
         transform="matrix(0.99999926,0,0,0.99999822,4.871309e-6,1.589791e-5)"><path
           d="M 16.0004,9.00009 C 16.6281,9.83575 17,10.8745 17,12.0001 c 0,1.1256 -0.3719,2.1643 -0.9996,3 M 18,5.29177 c 1.8412,1.64796 3,4.04282 3,6.70833 0,2.6655 -1.1588,5.0603 -3,6.7083 M 4.6,9.00009 h 0.9012 c 0.55093,0 0.82639,0 1.08165,-0.06868 C 6.80903,8.87056 7.02275,8.77046 7.21429,8.63566 7.43047,8.48353 7.60681,8.27191 7.95951,7.84868 L 10.5854,4.69758 C 11.0211,4.17476 11.2389,3.91335 11.4292,3.88614 11.594,3.86258 11.7597,3.92258 11.8712,4.04617 12,4.18889 12,4.52917 12,5.20973 V 18.7904 c 0,0.6806 0,1.0209 -0.1288,1.1636 -0.1115,0.1236 -0.2772,0.1836 -0.442,0.16 -0.1902,-0.0272 -0.4081,-0.2886 -0.8438,-0.8114 L 7.95951,16.1515 C 7.60681,15.7283 7.43047,15.5166 7.21429,15.3645 7.02275,15.2297 6.80903,15.1296 6.58285,15.0688 6.32759,15.0001 6.05213,15.0001 5.5012,15.0001 H 4.6 c -0.56005,0 -0.84008,0 -1.05399,-0.109 C 3.35785,14.7952 3.20487,14.6422 3.10899,14.4541 3,14.2402 3,13.9601 3,13.4001 v -2.8 C 3,10.04 3,9.76001 3.10899,9.54609 3.20487,9.35793 3.35785,9.20495 3.54601,9.10908 3.75992,9.00009 4.03995,9.00009 4.6,9.00009 Z"
           stroke="#000000"
           stroke-width="2"
           stroke-linecap="round"
           stroke-linejoin="round"
           id="path1-3"
           style="stroke-width:1.64496;stroke-linecap:round;stroke-linejoin:round;stroke-dasharray:none;stroke:#c6d0f5;stroke-opacity:1" /></g></g></g></svg>
