<?xml version="1.0" encoding="UTF-8" standalone="no"?>
<!-- Uploaded to: SVG Repo, www.svgrepo.com, Transformed by: SVG Repo Mixer Tools -->

<svg
   width="48"
   height="48"
   viewBox="0 0 9.6 9.6"
   fill="none"
   version="1.1"
   id="svg2"
   sodipodi:docname="performance.svg"
   xml:space="preserve"
   inkscape:version="1.3.2 (091e20ef0f, 2023-11-25, custom)"
   xmlns:inkscape="http://www.inkscape.org/namespaces/inkscape"
   xmlns:sodipodi="http://sodipodi.sourceforge.net/DTD/sodipodi-0.dtd"
   xmlns="http://www.w3.org/2000/svg"
   xmlns:svg="http://www.w3.org/2000/svg"><defs
     id="defs2" /><sodipodi:namedview
     id="namedview2"
     pagecolor="#ffffff"
     bordercolor="#000000"
     borderopacity="0.25"
     inkscape:showpageshadow="2"
     inkscape:pageopacity="0.0"
     inkscape:pagecheckerboard="0"
     inkscape:deskcolor="#d1d1d1"
     showguides="true"
     inkscape:zoom="12.55"
     inkscape:cx="15.01992"
     inkscape:cy="26.015936"
     inkscape:window-width="1586"
     inkscape:window-height="944"
     inkscape:window-x="0"
     inkscape:window-y="0"
     inkscape:window-maximized="1"
     inkscape:current-layer="g2"><sodipodi:guide
       position="4.8,8.4"
       orientation="0,-1"
       id="guide4"
       inkscape:locked="false" /><sodipodi:guide
       position="4.8,1.2"
       orientation="0,-1"
       id="guide5"
       inkscape:locked="false" /><sodipodi:guide
       position="1.1999996,4.7999996"
       orientation="1,0"
       id="guide6"
       inkscape:locked="false" /><sodipodi:guide
       position="8.3999996,4.7999996"
       orientation="1,0"
       id="guide7"
       inkscape:locked="false" /></sodipodi:namedview><g
     id="SVGRepo_bgCarrier"
     stroke-width="0" /><g
     id="SVGRepo_tracerCarrier"
     stroke-linecap="round"
     stroke-linejoin="round" /><g
     id="SVGRepo_iconCarrier" /><g
     style="fill:none"
     id="g1"
     transform="translate(-8.4729176,-6.3769516)"><g
       id="SVGRepo_bgCarrier-5"
       stroke-width="0" /><g
       id="SVGRepo_tracerCarrier-3"
       stroke-linecap="round"
       stroke-linejoin="round" /><g
       style="fill:none"
       id="g2"
       transform="translate(8.4729176,6.3769516)"><g
         id="SVGRepo_bgCarrier-53"
         stroke-width="0" /><g
         id="SVGRepo_tracerCarrier-5"
         stroke-linecap="round"
         stroke-linejoin="round" /><g
         id="SVGRepo_iconCarrier-6" /><g
         style="fill:#c6d0f5;fill-opacity:1;stroke:#c6d0f5;stroke-width:0.631788;stroke-linecap:round;stroke-linejoin:round;stroke-dasharray:none;stroke-opacity:1;paint-order:stroke fill markers"
         id="g7"
         transform="matrix(0.31494526,0,0,0.31818654,1.0206563,0.98177417)"><path
           fill-rule="evenodd"
           clip-rule="evenodd"
           d="M 12.261,1.03462 C 12.6971,1.15253 13,1.54819 13,1.99997 v 7 h 6 c 0.3581,0 0.6888,0.19144 0.8671,0.50194 0.1784,0.31049 0.1771,0.69259 -0.0033,1.00189 l -7,12 C 12.6361,22.8941 12.1751,23.0832 11.739,22.9653 11.3029,22.8474 11,22.4517 11,22 V 15 H 5 C 4.64193,15 4.3112,14.8085 4.13286,14.498 3.95452,14.1875 3.9558,13.8054 4.13622,13.4961 l 6.99998,-12 C 11.3639,1.10586 11.8249,0.916719 12.261,1.03462 Z M 6.74104,13 H 12 c 0.5523,0 1,0.4477 1,1 v 4.301 L 17.259,11 H 12 C 11.4477,11 11,10.5523 11,9.99997 V 5.69889 Z"
           fill="#000000"
           id="path1-3"
           style="fill:#c6d0f5;fill-opacity:1;stroke:#c6d0f5;stroke-width:0.631788;stroke-linecap:round;stroke-linejoin:round;stroke-dasharray:none;stroke-opacity:1;paint-order:stroke fill markers" /></g></g></g></svg>
