<?xml version="1.0" encoding="UTF-8" standalone="no"?>
<!-- Uploaded to: SVG Repo, www.svgrepo.com, Transformed by: SVG Repo Mixer Tools -->

<svg
   width="48"
   height="48"
   viewBox="0 0 9.6 9.6"
   fill="none"
   version="1.1"
   id="svg2"
   sodipodi:docname="silent.svg"
   xml:space="preserve"
   inkscape:version="1.3.2 (091e20ef0f, 2023-11-25, custom)"
   xmlns:inkscape="http://www.inkscape.org/namespaces/inkscape"
   xmlns:sodipodi="http://sodipodi.sourceforge.net/DTD/sodipodi-0.dtd"
   xmlns="http://www.w3.org/2000/svg"
   xmlns:svg="http://www.w3.org/2000/svg"><defs
     id="defs2" /><sodipodi:namedview
     id="namedview2"
     pagecolor="#ffffff"
     bordercolor="#000000"
     borderopacity="0.25"
     inkscape:showpageshadow="2"
     inkscape:pageopacity="0.0"
     inkscape:pagecheckerboard="0"
     inkscape:deskcolor="#d1d1d1"
     showguides="true"
     inkscape:zoom="8.8741902"
     inkscape:cx="17.297353"
     inkscape:cy="33.07344"
     inkscape:window-width="1586"
     inkscape:window-height="944"
     inkscape:window-x="0"
     inkscape:window-y="0"
     inkscape:window-maximized="1"
     inkscape:current-layer="g2"><sodipodi:guide
       position="4.8,8.4"
       orientation="0,-1"
       id="guide4"
       inkscape:locked="false" /><sodipodi:guide
       position="4.8,1.2"
       orientation="0,-1"
       id="guide5"
       inkscape:locked="false" /><sodipodi:guide
       position="1.1999996,4.7999996"
       orientation="1,0"
       id="guide6"
       inkscape:locked="false" /><sodipodi:guide
       position="8.3999996,4.7999996"
       orientation="1,0"
       id="guide7"
       inkscape:locked="false" /></sodipodi:namedview><g
     id="SVGRepo_bgCarrier"
     stroke-width="0" /><g
     id="SVGRepo_tracerCarrier"
     stroke-linecap="round"
     stroke-linejoin="round" /><g
     id="SVGRepo_iconCarrier" /><g
     style="fill:none"
     id="g1"
     transform="translate(-8.4729176,-6.3769516)"><g
       id="SVGRepo_bgCarrier-5"
       stroke-width="0" /><g
       id="SVGRepo_tracerCarrier-3"
       stroke-linecap="round"
       stroke-linejoin="round" /><g
       style="fill:none"
       id="g2"
       transform="translate(8.4729176,6.3769516)"><g
         id="SVGRepo_bgCarrier-53"
         stroke-width="0" /><g
         id="SVGRepo_tracerCarrier-5"
         stroke-linecap="round"
         stroke-linejoin="round" /><g
         id="SVGRepo_iconCarrier-6" /><path
         fill="var(--ci-primary-color, #000000)"
         d="M 6.497602,2.9362959 A 4.3929144,4.3946828 0 0 0 4.9162436,1.3672276 L 4.8000505,1.2999984 4.6838564,1.3672276 A 4.3664474,4.3682052 0 0 0 2.4999659,5.1523171 c 0,0.049982 8.698e-4,0.1007447 0.00253,0.1508851 0.023091,0.6797995 0.2829565,1.2518165 0.7515153,1.6542029 0.3585582,0.307938 0.8184881,0.4959211 1.3140216,0.5407668 V 8.3 H 5.0321073 V 4.5858856 H 4.5679713 V 7.0309334 C 3.7839118,6.9400694 3.0035515,6.3859686 2.9662652,5.2874172 2.9647103,5.2425102 2.9639328,5.1970588 2.9639328,5.1523171 A 3.9198018,3.9213798 0 0 1 4.799998,1.8390794 3.9198018,3.9213798 0 0 1 6.6360044,5.1523171 c 0,0.044742 -7.842e-4,0.090193 -0.00233,0.1351147 C 6.6038562,6.1662414 6.098431,6.6965763 5.4960441,6.920134 V 7.4114847 A 2.2651044,2.2660162 0 0 0 6.3459876,6.957376 C 6.8145464,6.5549895 7.0744161,5.9829726 7.0975039,5.3031876 c 0.00165,-0.050137 0.00253,-0.100904 0.00253,-0.150885 A 4.3644751,4.3662321 0 0 0 6.497499,2.9362959 Z"
         class="ci-primary"
         id="path1"
         style="fill:#c6d0f5;fill-opacity:1;stroke:#c6d0f5;stroke-width:0.2;stroke-linecap:round;stroke-linejoin:round;stroke-dasharray:none;stroke-opacity:1;paint-order:stroke fill markers" /></g></g></svg>
