<?xml version="1.0" encoding="UTF-8" standalone="no"?>
<!-- Uploaded to: SVG Repo, www.svgrepo.com, Transformed by: SVG Repo Mixer Tools -->

<svg
   width="48"
   height="48"
   viewBox="0 0 9.6 9.6"
   fill="none"
   version="1.1"
   id="svg2"
   sodipodi:docname="silent.svg"
   xml:space="preserve"
   inkscape:version="1.3.2 (091e20ef0f, 2023-11-25, custom)"
   xmlns:inkscape="http://www.inkscape.org/namespaces/inkscape"
   xmlns:sodipodi="http://sodipodi.sourceforge.net/DTD/sodipodi-0.dtd"
   xmlns="http://www.w3.org/2000/svg"
   xmlns:svg="http://www.w3.org/2000/svg"><defs
     id="defs2" /><sodipodi:namedview
     id="namedview2"
     pagecolor="#ffffff"
     bordercolor="#000000"
     borderopacity="0.25"
     inkscape:showpageshadow="2"
     inkscape:pageopacity="0.0"
     inkscape:pagecheckerboard="0"
     inkscape:deskcolor="#d1d1d1"
     showguides="true"
     inkscape:zoom="8.8741902"
     inkscape:cx="2.1973836"
     inkscape:cy="23.833161"
     inkscape:window-width="1586"
     inkscape:window-height="944"
     inkscape:window-x="0"
     inkscape:window-y="0"
     inkscape:window-maximized="1"
     inkscape:current-layer="Shopicon"><sodipodi:guide
       position="4.8,8.4"
       orientation="0,-1"
       id="guide4"
       inkscape:locked="false" /><sodipodi:guide
       position="4.8,1.2"
       orientation="0,-1"
       id="guide5"
       inkscape:locked="false" /><sodipodi:guide
       position="1.1999996,4.7999996"
       orientation="1,0"
       id="guide6"
       inkscape:locked="false" /><sodipodi:guide
       position="8.3999996,4.7999996"
       orientation="1,0"
       id="guide7"
       inkscape:locked="false" /></sodipodi:namedview><g
     id="SVGRepo_bgCarrier"
     stroke-width="0" /><g
     id="SVGRepo_tracerCarrier"
     stroke-linecap="round"
     stroke-linejoin="round" /><g
     id="SVGRepo_iconCarrier" /><g
     style="fill:none"
     id="g1"
     transform="translate(-8.4729176,-6.3769516)"><g
       id="SVGRepo_bgCarrier-5"
       stroke-width="0" /><g
       id="SVGRepo_tracerCarrier-3"
       stroke-linecap="round"
       stroke-linejoin="round" /><g
       style="fill:none"
       id="g2"
       transform="translate(8.4729176,6.3769516)"><g
         id="SVGRepo_bgCarrier-53"
         stroke-width="0" /><g
         id="SVGRepo_tracerCarrier-5"
         stroke-linecap="round"
         stroke-linejoin="round" /><g
         id="SVGRepo_iconCarrier-6" /><g
         id="g6"
         transform="matrix(3.3333333,0,0,3.3333333,-22.034147,-111.28173)"
         style="fill:none;fill-opacity:1;stroke:#c6d0f5;stroke-opacity:1"><g
           id="Shopicon"
           style="fill:none;fill-opacity:1;stroke:#c6d0f5;stroke-opacity:1"><g
             style="fill:#c6d0f5;stroke-width:0.571813;stroke-dasharray:none;stroke-linejoin:round;stroke-linecap:round;paint-order:stroke fill markers;stroke:#c6d0f5;stroke-opacity:1;fill-opacity:1"
             id="g7"
             transform="matrix(0.10489808,0,0,0.10496105,6.7914759,33.5649)"><path
               d="M 3.707,21.707 6.674,18.74 a 7.533,7.533 0 0 0 4.2,1.23 8.886,8.886 0 0 0 6.332,-2.763 C 21.019,13.4 21.958,3.51 22,3.09 a 1,1 0 0 0 -0.289,-0.8 1.013,1.013 0 0 0 -0.8,-0.289 45.808,45.808 0 0 0 -5.7,0.961 1,1 0 0 0 -0.714,0.64 L 13.848,5.436 13.309,4.351 A 1,1 0 0 0 12.09,3.851 13.782,13.782 0 0 0 6.795,6.791 C 3.224,10.362 3.579,14.857 5.26,17.326 l -2.967,2.967 a 1,1 0 0 0 1.414,1.414 z m 4.5,-13.5 a 10.7,10.7 0 0 1 3.705,-2.164 l 1.192,2.4 A 0.98,0.98 0 0 0 14.061,9 1,1 0 0 0 14.942,8.335 L 16.2,4.791 c 1.445,-0.318 2.758,-0.525 3.66,-0.647 -0.367,2.694 -1.48,9.066 -4.063,11.649 -2.788,2.788 -5.945,2.457 -7.668,1.5 l 4.582,-4.582 A 1,1 0 0 0 11.297,11.297 L 6.711,15.875 C 5.751,14.151 5.42,11 8.207,8.207 Z"
               id="path1"
               style="stroke-width:0.571813;stroke-dasharray:none;stroke-linejoin:round;stroke-linecap:round;paint-order:stroke fill markers;stroke:#c6d0f5;stroke-opacity:1;fill:#c6d0f5;fill-opacity:1" /></g></g></g></g></g></svg>
